<?xml version="1.0" encoding="UTF-8" standalone="no"?>
<svg
   enable-background="new 0 0 64 64"
   viewBox="0 0 64 64"
   version="1.1"
   id="svg15"
   sodipodi:docname="keepassbridge-connected.svg"
   inkscape:version="1.4 (86a8ad7, 2024-10-11)"
   xmlns:inkscape="http://www.inkscape.org/namespaces/inkscape"
   xmlns:sodipodi="http://sodipodi.sourceforge.net/DTD/sodipodi-0.dtd"
   xmlns="http://www.w3.org/2000/svg"
   xmlns:svg="http://www.w3.org/2000/svg">
  <defs
     id="defs15" />
  <sodipodi:namedview
     id="namedview15"
     pagecolor="#ffffff"
     bordercolor="#000000"
     borderopacity="0.25"
     inkscape:showpageshadow="2"
     inkscape:pageopacity="0.0"
     inkscape:pagecheckerboard="0"
     inkscape:deskcolor="#d1d1d1"
     inkscape:zoom="6.75"
     inkscape:cx="23.851852"
     inkscape:cy="32"
     inkscape:window-width="1920"
     inkscape:window-height="1017"
     inkscape:window-x="1927"
     inkscape:window-y="2152"
     inkscape:window-maximized="1"
     inkscape:current-layer="svg15" />
  <g
     id="extinguisher" />
  <g
     id="smart_door" />
  <g
     id="g1">
    <path
       clip-rule="evenodd"
       d="M 43.1851,16.261 C 36.6054,11.8515 27.5463,12.5394 21.7425,18.3282 L 2.9207,37.1013 c -1.2277,1.2279 -1.2277,3.2332 0,4.4577 L 22.415,61.0028 c 1.2277,1.2279 3.2381,1.2279 4.4692,0 L 45.706,42.2297 c 5.8038,-5.7888 6.4969,-14.8211 2.076,-21.3838 L 43.3714,20.6567 Z M 29.3809,21.3756 42.6506,34.611 c 0.6966,0.6948 0.6966,1.8298 0,2.5246 L 25.7807,53.9655 c -0.6966,0.6948 -1.8346,0.6948 -2.5312,0 L 9.9763,40.7266 C 9.2832,40.0318 9.2832,38.8968 9.9797,38.202 L 26.8496,21.3757 c 0.6967,-0.6949 1.8347,-0.6949 2.5313,-10e-5 z"
       fill="#969090"
       fill-rule="evenodd"
       id="path1" />
  </g>
  <path
     clip-rule="evenodd"
     d="M 26.8497,21.3756 9.9798,38.202 c -0.6966,0.6948 -0.6966,1.8299 -0.0034,2.5246 l 13.2732,13.2389 c 0.6966,0.6948 1.8346,0.6948 2.5312,0 L 42.6507,37.1357 c 0.6966,-0.6948 0.6966,-1.8298 0,-2.5246 L 29.3809,21.3756 c -0.6966,-0.6948 -1.8346,-0.6948 -2.5312,0 z"
     fill="#f0f0f0"
     fill-rule="evenodd"
     id="path2" />
  <g
     id="g3">
    <path
       clip-rule="evenodd"
       d="M 44.2369,38.8761 24.5668,58.4954 c -1.2828,1.2795 -3.3381,1.3242 -4.5658,0.0998 l 2.4139,2.4077 c 1.2277,1.2279 3.2381,1.2279 4.4692,0 L 45.706,42.2297 c 4.9348,-4.922 6.1728,-12.1932 3.714,-18.295 0.6828,5.235 -1.0587,10.8277 -5.1831,14.9414 z"
       fill="#827a7a"
       fill-rule="evenodd"
       id="path3" />
  </g>
  <g
     id="g4">
    <path
       clip-rule="evenodd"
       d="M 40.3539,34.8449 23.484,51.6713 c -0.6966,0.6948 -1.838,0.6948 -2.5346,0 l 2.3001,2.2942 c 0.6966,0.6948 1.8346,0.6948 2.5312,0 L 42.6506,37.1357 c 0.6966,-0.6948 0.6966,-1.8298 0,-2.5246 l -2.2967,-2.2942 c 0.6966,0.6948 0.6966,1.8333 0,2.528 z"
       fill="#dbdbdb"
       fill-rule="evenodd"
       id="path4" />
  </g>
  <g
     id="g5">
    <path
       clip-rule="evenodd"
       d="M 31.581,39.4161 24.5634,32.42 24.3496,32.2067 c -0.4759,-0.4747 -1.2587,-0.4747 -1.7346,0 l -6.1072,6.0915 c -0.4759,0.4747 -0.4759,1.2554 0,1.7335 l 4.9072,4.8911 2.5346,2.5281 c 0.4759,0.4747 1.2587,0.4747 1.7346,0 l 0.9828,-0.9803 5.1244,-5.1112 c 0.4759,-0.4747 0.4759,-1.2554 0,-1.7301 z"
       fill="#f0bf8b"
       fill-rule="evenodd"
       id="path5" />
  </g>
  <g
     id="g6">
    <path
       clip-rule="evenodd"
       d="m 29.9637,39.5365 -5.1244,5.1112 -0.9828,0.9803 c -0.4759,0.4747 -1.2587,0.4747 -1.7346,0 l 1.8277,1.823 c 0.4759,0.4747 1.2587,0.4747 1.7346,0 l 0.9828,-0.9803 5.1244,-5.1112 c 0.4759,-0.4747 0.4759,-1.2554 0,-1.7301 L 31.581,39.4161 29.9637,37.8064 c 0.4759,0.4747 0.4759,1.2555 0,1.7301 z"
       fill="#f6ac69"
       fill-rule="evenodd"
       id="path6" />
  </g>
  <g
     id="g7"
     style="fill:#00ff00">
    <path
       clip-rule="evenodd"
       d="m 43.1851,16.261 -1.6794,1.6716 c -1.2656,1.2623 -1.2656,3.3261 0,4.5849 1.2656,1.2623 3.3312,1.2623 4.5968,0 l 1.6794,-1.6716 c -0.6,-0.8908 -1.2897,-1.7335 -2.076,-2.5178 -0.7862,-0.7807 -1.6311,-1.4721 -2.5208,-2.0671 z"
       fill="#f55c7a"
       fill-rule="evenodd"
       id="path7"
       style="fill:#00ff00" />
  </g>
  <path
     d="m 47.2715,12.3281 c -0.5449,-0.083 -1.0576,0.2871 -1.1436,0.833 -0.085,0.5459 0.2871,1.0576 0.833,1.1436 0.7002,0.1094 1.3389,0.4346 1.8457,0.9385 0.502,0.499 0.8252,1.1348 0.9355,1.8369 0.0781,0.4932 0.5029,0.8447 0.9873,0.8447 0.0518,0 0.1035,-0.0039 0.1563,-0.0117 0.5459,-0.0859 0.918,-0.5977 0.833,-1.1436 -0.1768,-1.125 -0.6953,-2.1426 -1.502,-2.9453 -0.8085,-0.8027 -1.8271,-1.3203 -2.9452,-1.4961 z"
     id="path8"
     style="fill:#c40035;fill-opacity:1" />
  <path
     d="m 47.9395,6.9248 c -0.5547,-0.0811 -1.0576,0.2891 -1.1426,0.834 -0.085,0.5459 0.2891,1.0576 0.834,1.1426 1.8984,0.2959 3.624,1.1719 4.9902,2.5332 1.3643,1.3613 2.2422,3.0811 2.5381,4.9736 0.0771,0.4932 0.5029,0.8457 0.9873,0.8457 0.0508,0 0.1035,-0.0039 0.1553,-0.0117 0.5459,-0.0859 0.9189,-0.5977 0.834,-1.1426 -0.3623,-2.3154 -1.4355,-4.418 -3.1025,-6.0811 -1.6681,-1.663 -3.7755,-2.7324 -6.0938,-3.0937 z"
     id="path9"
     style="fill:#c40035;fill-opacity:1" />
  <path
     d="M 57.9072,6.1563 C 55.1826,3.4366 51.7304,1.6836 47.9228,1.0879 c -0.543,-0.0791 -1.0566,0.2891 -1.1426,0.834 -0.085,0.5449 0.2881,1.0566 0.834,1.1426 3.3858,0.5293 6.4571,2.0878 8.8799,4.5087 2.4287,2.418 3.9902,5.4795 4.5176,8.8525 0.0771,0.4932 0.5029,0.8457 0.9873,0.8457 0.0508,0 0.1035,-0.0039 0.1553,-0.0117 0.5459,-0.0859 0.9189,-0.5967 0.834,-1.1426 C 62.3945,12.3213 60.6377,8.876 57.9072,6.1563 Z"
     id="path10"
     style="fill:#c40035;fill-opacity:1" />
  <path
     d="M 30.0879,20.668 C 29,19.5821 27.2295,19.5821 26.1436,20.668 L 9.2734,37.4941 C 8.747,38.0185 8.457,38.7187 8.457,39.4638 c 0,0.7461 0.29,1.4463 0.8164,1.9707 L 22.543,54.6748 c 0.5439,0.541 1.2578,0.8115 1.9717,0.8115 0.7148,0 1.4287,-0.2705 1.9717,-0.8125 L 43.3565,37.8437 c 0.5273,-0.5254 0.8174,-1.2256 0.8164,-1.9717 0,-0.7451 -0.29,-1.4443 -0.8164,-1.9688 z M 41.9443,36.4277 25.0742,53.2578 c -0.3086,0.3057 -0.8105,0.3066 -1.1191,0 L 10.6855,40.0186 C 10.538,39.8721 10.457,39.6748 10.457,39.4639 c 0,-0.21 0.0811,-0.4072 0.2285,-0.5537 L 27.5566,22.084 c 0.1533,-0.1543 0.3564,-0.2314 0.5586,-0.2314 0.2022,0 0.4053,0.0771 0.5586,0.2314 h 0.001 l 13.2695,13.2363 c 0.1475,0.1465 0.2285,0.3428 0.2285,0.5527 10e-4,0.21 -0.081,0.4073 -0.2285,0.5547 z"
     id="path11" />
  <path
     d="m 34.7178,34.7793 c 0,-1.4727 -0.5713,-2.8535 -1.6113,-3.8906 -2.1465,-2.1357 -5.6416,-2.1387 -7.79,0.001 l -0.4536,0.4525 c -0.8734,-0.694 -2.1473,-0.6476 -2.9536,0.1569 l -6.1074,6.0908 c -0.8672,0.8652 -0.8682,2.2773 0,3.1504 l 7.4414,7.4199 c 0.4346,0.4316 1.0039,0.6475 1.5732,0.6475 0.5703,0 1.1406,-0.2158 1.5742,-0.6484 l 6.1064,-6.0908 c 0.4199,-0.4189 0.6514,-0.9775 0.6514,-1.5723 0,-0.5104 -0.1776,-0.9872 -0.4899,-1.379 l 0.4489,-0.4481 c 1.039,-1.0363 1.6103,-2.4171 1.6103,-3.8898 z m -3.6328,5.8721 -6.1064,6.0908 c -0.085,0.085 -0.2373,0.0879 -0.3232,0.001 l -7.4385,-7.416 C 17.131,39.2403 17.13,39.0899 17.214,39.0059 l 6.1074,-6.0908 c 0.043,-0.043 0.1025,-0.0645 0.1611,-0.0645 0.0586,0 0.1182,0.0215 0.1611,0.0645 l 7.4414,7.4219 c 0.0557,0.0557 0.0635,0.1221 0.0635,0.1582 -10e-5,0.0419 -0.0108,0.1034 -0.0635,0.1562 z m 0.6103,-3.3985 -0.4351,0.4343 -4.9637,-4.9507 0.431,-0.4299 c 1.3711,-1.3652 3.5986,-1.3643 4.9678,-0.001 0.6592,0.6582 1.0225,1.5361 1.0225,2.4736 0,0.9375 -0.3633,1.8155 -1.0225,2.4737 z"
     id="path12" />
  <path
     d="m 25.4561,37.7246 c -0.3906,-0.3887 -1.0234,-0.3906 -1.4141,0.002 -0.2773,0.278 -0.3478,0.6774 -0.2296,1.0261 l -1.6962,1.6926 c -0.3916,0.3906 -0.3916,1.0234 -0.002,1.4141 0.1953,0.1963 0.4521,0.2939 0.708,0.2939 0.2559,0 0.5107,-0.0977 0.7061,-0.292 l 1.6974,-1.6939 c 0.1053,0.0362 0.2137,0.063 0.324,0.063 0.2559,0 0.5127,-0.0977 0.708,-0.2939 0.3896,-0.3906 0.3896,-1.0244 -0.002,-1.4141 z"
     id="path13" />
  <path
     d="M 21.0361,17.6201 2.2139,36.3945 C 1.4307,37.1777 0.999,38.2227 1,39.335 c 10e-4,1.1104 0.4326,2.1523 1.2148,2.9316 L 21.708,61.71 c 0.8105,0.8105 1.875,1.2158 2.9404,1.2158 1.0645,0 2.1299,-0.4053 2.9414,-1.2148 L 46.4121,42.9376 c 3.377,-3.3682 5.2363,-7.8633 5.2363,-12.6582 0,-4.7959 -1.8594,-9.291 -5.2363,-12.6592 -6.9961,-6.9747 -18.3799,-6.9747 -25.376,-10e-5 z m 26.5514,4.8302 c 1.3365,2.358 2.0609,5.0322 2.0609,7.829 0,4.2598 -1.6514,8.252 -4.6484,11.2422 L 26.1777,60.2949 c -0.8438,0.8408 -2.2148,0.8428 -3.0566,0 L 3.627,40.8506 C 3.2236,40.4482 3.001,39.9092 3,39.333 3,38.7559 3.2227,38.2139 3.627,37.8096 L 22.4483,19.0362 c 3.1094,-3.0986 7.1924,-4.6484 11.2764,-4.6484 2.7131,0 5.4199,0.7 7.8474,2.0683 l -0.7722,0.7686 c -0.8027,0.8008 -1.2441,1.8682 -1.2432,3.0049 10e-4,1.1357 0.4424,2.2002 1.2432,2.9961 0.8281,0.8262 1.916,1.2393 3.0049,1.2393 1.0879,0 2.1758,-0.4131 3.0029,-1.2383 z m -2.191,-0.6407 c -0.8799,0.876 -2.3076,0.875 -3.1855,-0.001 -0.4219,-0.4189 -0.6543,-0.9805 -0.6543,-1.5801 0,-0.6016 0.2324,-1.166 0.6543,-1.5869 l 1.0717,-1.0667 c 0.5956,0.4459 1.1758,0.9214 1.7173,1.4612 0.5373,0.5361 1.0153,1.1144 1.4643,1.7106 z"
     id="path14" />
  <g
     id="papper_spray" />
  <g
     id="baton" />
  <g
     id="mobile_security" />
  <g
     id="data_protection" />
  <g
     id="firewall" />
  <g
     id="folder" />
  <g
     id="id_card" />
  <g
     id="credit_card" />
  <g
     id="pattern" />
  <g
     id="access_keys" />
  <g
     id="alarm" />
  <g
     id="passcode" />
  <g
     id="retinal_scan" />
  <g
     id="safe_bank" />
  <g
     id="browser" />
  <g
     id="insurance" />
  <g
     id="protection" />
  <g
     id="cctv_camera" />
  <g
     id="security_guard" />
  <g
     id="password" />
  <g
     id="siren" />
  <g
     id="fingerprint" />
  <g
     id="barrier" />
  <g
     id="metal_detector" />
  <g
     id="traffic_cone" />
  <g
     id="traffic_sign" />
  <g
     id="padlock" />
  <rect
     style="fill:#f0f0f0;fill-opacity:1;stroke-width:0.645781"
     id="rect1"
     width="3.7790117"
     height="2.5831218"
     x="48.232746"
     y="1.6807768"
     transform="matrix(0.70187836,0.71229682,-0.82848657,0.56000893,0,0)" />
</svg>
